<svg width="26" height="24" viewBox="0 0 26 24" fill="none" xmlns="http://www.w3.org/2000/svg">
<path d="M23.8139 1L14.4384 7.87495L16.1818 3.82331L23.8139 1Z" fill="#E17726" stroke="#E17726" stroke-linecap="round" stroke-linejoin="round"/>
<path d="M2.18509 1.00049L11.4772 7.9396L9.81719 3.8238L2.18509 1.00049Z" fill="#E27625" stroke="#E27625" stroke-linecap="round" stroke-linejoin="round"/>
<path d="M20.437 16.9409L17.9424 20.7176L23.284 22.175L24.8141 17.0234L20.437 16.9409Z" fill="#E27625" stroke="#E27625" stroke-linecap="round" stroke-linejoin="round"/>
<path d="M1.19391 17.0234L2.71477 22.175L8.04704 20.7176L5.56173 16.9409L1.19391 17.0234Z" fill="#E27625" stroke="#E27625" stroke-linecap="round" stroke-linejoin="round"/>
<path d="M7.75967 10.5617L6.27591 12.78L11.5618 13.0183L11.3856 7.38086L7.75967 10.5617Z" fill="#E27625" stroke="#E27625" stroke-linecap="round" stroke-linejoin="round"/>
<path d="M18.2377 10.5614L14.5561 7.31641L14.4356 13.018L19.7215 12.7797L18.2377 10.5614Z" fill="#E27625" stroke="#E27625" stroke-linecap="round" stroke-linejoin="round"/>
<path d="M8.04691 20.718L11.2463 19.1872L8.49203 17.0605L8.04691 20.718Z" fill="#E27625" stroke="#E27625" stroke-linecap="round" stroke-linejoin="round"/>
<path d="M14.7525 19.1872L17.9426 20.718L17.5067 17.0605L14.7525 19.1872Z" fill="#E27625" stroke="#E27625" stroke-linecap="round" stroke-linejoin="round"/>
<path d="M17.943 20.7173L14.7529 19.1865L15.0126 21.2398L14.9848 22.1107L17.943 20.7173Z" fill="#D5BFB2" stroke="#D5BFB2" stroke-linecap="round" stroke-linejoin="round"/>
<path d="M8.04929 20.7183L11.0168 22.1116L10.9983 21.2408L11.2486 19.1875L8.04929 20.7183Z" fill="#D5BFB2" stroke="#D5BFB2" stroke-linecap="round" stroke-linejoin="round"/>
<path d="M11.0718 15.7031L8.41953 14.9331L10.2928 14.0806L11.0718 15.7031Z" fill="#233447" stroke="#233447" stroke-linecap="round" stroke-linejoin="round"/>
<path d="M14.9307 15.7031L15.7096 14.0806L17.5922 14.9331L14.9307 15.7031Z" fill="#233447" stroke="#233447" stroke-linecap="round" stroke-linejoin="round"/>
<path d="M8.04731 20.7176L8.51099 16.941L5.56201 17.0235L8.04731 20.7176Z" fill="#CC6228" stroke="#CC6228" stroke-linecap="round" stroke-linejoin="round"/>
<path d="M17.4878 16.9409L17.9422 20.7176L20.4368 17.0234L17.4878 16.9409Z" fill="#CC6228" stroke="#CC6228" stroke-linecap="round" stroke-linejoin="round"/>
<path d="M19.7224 12.7793L14.4365 13.0176L14.928 15.7034L15.707 14.081L17.5895 14.9334L19.7224 12.7793Z" fill="#CC6228" stroke="#CC6228" stroke-linecap="round" stroke-linejoin="round"/>
<path d="M8.41708 14.9334L10.2903 14.081L11.0693 15.7034L11.5608 13.0176L6.2749 12.7793L8.41708 14.9334Z" fill="#CC6228" stroke="#CC6228" stroke-linecap="round" stroke-linejoin="round"/>
<path d="M6.27777 12.7797L8.49414 17.0605L8.41995 14.9339L6.27777 12.7797Z" fill="#E27525" stroke="#E27525" stroke-linecap="round" stroke-linejoin="round"/>
<path d="M17.5902 14.9334L17.5068 17.0601L19.7231 12.7793L17.5902 14.9334Z" fill="#E27525" stroke="#E27525" stroke-linecap="round" stroke-linejoin="round"/>
<path d="M11.5622 13.0176L11.0707 15.7034L11.6921 18.875L11.8312 14.6951L11.5622 13.0176Z" fill="#E27525" stroke="#E27525" stroke-linecap="round" stroke-linejoin="round"/>
<path d="M14.4374 13.0176L14.1778 14.6859L14.3076 18.875L14.9289 15.7034L14.4374 13.0176Z" fill="#E27525" stroke="#E27525" stroke-linecap="round" stroke-linejoin="round"/>
<path d="M14.9294 15.7036L14.3081 18.8752L14.7532 19.1869L17.5075 17.0602L17.5909 14.9336L14.9294 15.7036Z" fill="#F5841F" stroke="#F5841F" stroke-linecap="round" stroke-linejoin="round"/>
<path d="M8.41953 14.9336L8.49371 17.0602L11.2479 19.1869L11.6931 18.8752L11.0718 15.7036L8.41953 14.9336Z" fill="#F5841F" stroke="#F5841F" stroke-linecap="round" stroke-linejoin="round"/>
<path d="M14.9859 22.1106L15.0137 21.2398L14.7726 21.0381H11.2301L10.9983 21.2398L11.0168 22.1106L8.04932 20.7173L9.08795 21.5606L11.193 22.9998H14.8004L16.9148 21.5606L17.9442 20.7173L14.9859 22.1106Z" fill="#C0AC9D" stroke="#C0AC9D" stroke-linecap="round" stroke-linejoin="round"/>
<path d="M14.7542 19.1867L14.3091 18.875H11.694L11.2489 19.1867L10.9985 21.24L11.2303 21.0383H14.7728L15.0139 21.24L14.7542 19.1867Z" fill="#161616" stroke="#161616" stroke-linecap="round" stroke-linejoin="round"/>
<path d="M24.2119 8.32411L25.0002 4.52914L23.8132 1L14.7529 7.64578L18.2398 10.5608L23.164 11.9816L24.249 10.7258L23.7761 10.3866L24.5272 9.70827L23.9523 9.26827L24.7034 8.69994L24.2119 8.32411Z" fill="#763E1A" stroke="#763E1A" stroke-linecap="round" stroke-linejoin="round"/>
<path d="M1 4.52963L1.79752 8.3246L1.28748 8.70043L2.04791 9.26876L1.47295 9.70875L2.2241 10.3871L1.75115 10.7262L2.83616 11.9821L7.76039 10.5612L11.2472 7.64627L2.18701 1.00049L1 4.52963Z" fill="#763E1A" stroke="#763E1A" stroke-linecap="round" stroke-linejoin="round"/>
<path d="M23.1627 11.9823L18.2385 10.5615L19.7223 12.7798L17.5059 17.0606L20.4363 17.024H24.8134L23.1627 11.9823Z" fill="#F5841F" stroke="#F5841F" stroke-linecap="round" stroke-linejoin="round"/>
<path d="M7.75956 10.5615L2.83532 11.9823L1.19391 17.024H5.56173L8.49217 17.0606L6.27579 12.7798L7.75956 10.5615Z" fill="#F5841F" stroke="#F5841F" stroke-linecap="round" stroke-linejoin="round"/>
<path d="M14.4366 13.0178L14.7519 7.6462L16.18 3.82373H9.81839L11.2465 7.6462L11.5618 13.0178L11.6824 14.7045L11.6916 18.8753H14.3068L14.316 14.7045L14.4366 13.0178Z" fill="#F5841F" stroke="#F5841F" stroke-linecap="round" stroke-linejoin="round"/>
</svg>
